<svg xmlns="http://www.w3.org/2000/svg" version="1.1" xmlns:xlink="http://www.w3.org/1999/xlink" xmlns:svgjs="http://svgjs.dev/svgjs" width="2000" height="1500" viewBox="0 0 2000 1500"><rect width="2000" height="1500" fill="#ffffff"></rect><g transform="matrix(0.75,0,0,0.75,249.090909090909,278.98548387096776)"><svg viewBox="0 0 396 248" data-background-color="#ffffff" preserveAspectRatio="xMidYMid meet" height="1252" width="2000" xmlns="http://www.w3.org/2000/svg" xmlns:xlink="http://www.w3.org/1999/xlink"><g id="tight-bounds" transform="matrix(1,0,0,1,0.2400000000000091,0.4000000000000057)"><svg viewBox="0 0 395.52 247.2" height="247.2" width="395.52"><g><svg viewBox="0 0 395.52 247.2" height="247.2" width="395.52"><g transform="matrix(1,0,0,1,0,102.99646091544975)"><svg viewBox="0 0 395.52 41.2070781691005" height="41.2070781691005" width="395.52"><g><svg viewBox="0 0 395.52 41.2070781691005" height="41.2070781691005" width="395.52"><g><svg viewBox="0 0 395.52 41.2070781691005" height="41.2070781691005" width="395.52"><g><svg viewBox="0 0 395.52 41.2070781691005" height="41.2070781691005" width="395.52"><g id="textblocktransform"><svg viewBox="0 0 395.52 41.2070781691005" height="41.2070781691005" width="395.52" id="textblock"><g><svg viewBox="0 0 395.52 41.2070781691005" height="41.2070781691005" width="395.52"><g transform="matrix(1,0,0,1,0,0)"><svg width="395.52" viewBox="-1.42 -44.34 462.52000000000004 49.080000000000005" height="41.2070781691005" data-palette-color="#4845d2"><path d="M21.48-35.94L33.98 0 27.93 0 18.6-26.95 9.18 0 3.08 0 15.67-35.94 21.48-35.94ZM15.28-11.43L21.83-11.43 23.24-7.47 13.92-7.47 15.28-11.43ZM62.2-23.58L59.57-20.41Q58.84-21.29 57.54-22.05 56.25-22.8 54.1-22.95L54.1-22.95 54.1-27.64Q56.78-27.49 58.71-26.49 60.64-25.49 62.2-23.58L62.2-23.58ZM54.1 0.2L54.1-4.64Q55.86-4.83 57.1-5.49 58.35-6.15 59.47-7.03L59.47-7.03 61.67-3.86Q60.15-1.95 58.4-0.95 56.64 0.05 54.1 0.2L54.1 0.2ZM40.48-13.77L40.48-13.77Q40.48-16.55 41.28-18.99 42.09-21.44 43.65-23.29 45.21-25.15 47.34-26.29 49.46-27.44 52.1-27.64L52.1-27.64 52.1-22.9Q49.66-22.36 48.19-19.9 46.73-17.43 46.73-13.92L46.73-13.92Q46.73-12.11 47.09-10.52 47.46-8.94 48.14-7.71 48.83-6.49 49.83-5.66 50.83-4.83 52.1-4.64L52.1-4.64 52.1 0.2Q49.41 0.05 47.26-1.1 45.11-2.25 43.6-4.13 42.09-6.01 41.28-8.5 40.48-10.99 40.48-13.77ZM82.61-23.19L82.61-27.78Q85.25-27.54 87.37-26.37 89.5-25.2 91.01-23.34 92.52-21.48 93.33-19.09 94.14-16.7 94.14-14.11L94.14-14.11Q94.14-12.94 93.99-11.77L93.99-11.77 77.24-11.77 77.24-16.06 88.52-16.06Q88.52-17.33 88.11-18.51 87.69-19.68 86.88-20.68 86.08-21.68 85-22.36 83.93-23.05 82.61-23.19L82.61-23.19ZM82.42-4.59L82.42-4.59Q82.95-4.59 83.76-4.71 84.57-4.83 85.47-5.15 86.37-5.47 87.28-5.96 88.18-6.45 88.86-7.13L88.86-7.13 91.01-3.86Q89.4-1.86 87.25-0.83 85.1 0.2 81.78 0.2L81.78 0.2Q79.1 0.2 76.75-0.9 74.41-2 72.75-3.91 71.09-5.81 70.11-8.35 69.14-10.89 69.14-13.82L69.14-13.82Q69.14-16.6 70.04-19.09 70.94-21.58 72.5-23.46 74.07-25.34 76.14-26.51 78.22-27.69 80.61-27.83L80.61-27.83 80.61-23.14Q78.8-22.8 77.63-21.68 76.46-20.56 75.8-19.12 75.14-17.68 74.87-16.16 74.6-14.65 74.6-13.57L74.6-13.57Q74.6-11.67 75.07-10.03 75.53-8.4 76.51-7.2 77.49-6.01 78.93-5.3 80.37-4.59 82.42-4.59ZM110.83-12.01L120.79-35.99 127.48-35.99 116.79-14.65 116.79 0 110.83 0 110.83-12.01ZM100.68-35.99L107.37-35.99 112.79-21.97 110.15-15.58 100.68-35.99ZM146.67-23.1L146.67-27.69Q149.36-27.54 151.55-26.39 153.75-25.24 155.24-23.36 156.73-21.48 157.56-18.99 158.39-16.5 158.39-13.67L158.39-13.67Q158.39-10.84 157.53-8.37 156.68-5.91 155.17-4.08 153.65-2.25 151.45-1.12 149.26 0 146.67 0.2L146.67 0.2 146.67-4.49Q149.11-5.03 150.65-7.57 152.19-10.11 152.19-13.67L152.19-13.67Q152.19-15.48 151.82-17.07 151.45-18.65 150.72-19.92 149.99-21.19 148.96-22.02 147.94-22.85 146.67-23.1L146.67-23.1ZM133.05-13.77L133.05-13.77Q133.05-16.6 133.88-19.04 134.71-21.48 136.24-23.32 137.78-25.15 139.93-26.27 142.08-27.39 144.67-27.64L144.67-27.64 144.67-23.1Q142.23-22.56 140.76-20.02 139.3-17.48 139.3-13.92L139.3-13.92Q139.3-12.11 139.66-10.5 140.03-8.89 140.71-7.62 141.4-6.35 142.4-5.52 143.4-4.69 144.67-4.49L144.67-4.49 144.67 0.2Q141.98 0 139.83-1.15 137.69-2.29 136.17-4.15 134.66-6.01 133.85-8.5 133.05-10.99 133.05-13.77ZM171.81-27.54L171.81-12.55Q171.81-10.84 171.96-9.35 172.11-7.86 172.59-6.74 173.08-5.62 174.06-4.93 175.04-4.25 176.65-4.25L176.65-4.25Q177.28-4.25 178.45-4.44 179.63-4.64 180.7-5.08L180.7-5.08 180.7-1.46Q179.43-0.78 177.94-0.27 176.45 0.24 174.99 0.24L174.99 0.24Q173.82 0.24 172.89 0.02 171.96-0.2 171.15-0.66 170.35-1.12 169.62-1.71 168.88-2.29 168.15-3.03L168.15-3.03Q167.32-3.86 166.83-4.96 166.34-6.05 166.13-7.25 165.91-8.45 165.88-9.67 165.86-10.89 165.86-12.06L165.86-12.06 165.86-27.54 171.81-27.54ZM182.7-27.54L188.66-27.54 188.66 0 183.34 0 182.7-2.83 182.7-27.54ZM196.96-27.54L202.23-27.54 202.87-24.71 202.87-9.77 202.87-9.67 202.87 0 196.96 0 196.96-27.54ZM204.87-21.34L204.87-26.32Q206.09-27 207.8-27.37 209.51-27.73 212.44-27.73L212.44-27.73 212.44-21.58Q211.07-21.97 209.12-22.02L209.12-22.02Q208.04-22.02 206.94-21.85 205.84-21.68 204.87-21.34L204.87-21.34ZM225.08-35.99L225.08 0 219.12 0 219.12-35.99 225.08-35.99ZM233.77-27.54L239.04-27.54 239.68-24.76 239.68 0 233.77 0 233.77-27.54ZM254.28-24.51L254.28-24.51Q255.11-23.68 255.57-22.58 256.03-21.48 256.25-20.29 256.47-19.09 256.52-17.87 256.57-16.65 256.57-15.48L256.57-15.48 256.57-0.98 256.57 0 250.61 0 250.61-14.99Q250.61-16.65 250.47-18.16 250.32-19.68 249.78-20.85 249.25-22.02 248.32-22.68 247.39-23.34 245.73-23.34L245.73-23.34Q245.05-23.34 243.9-23.12 242.75-22.9 241.68-22.41L241.68-22.41 241.68-26.17Q243-26.86 244.54-27.34 246.07-27.83 247.54-27.83L247.54-27.83Q249.74-27.83 251.25-26.93 252.76-26.03 254.28-24.51ZM272.58-23.54L272.58-8.35Q272.58-6.69 273.02-5.76 273.46-4.83 274.27-4.35 275.08-3.86 276.08-3.74 277.08-3.61 278.2-3.61L278.2-3.61 278.2 0Q277.57 0.1 276.93 0.15L276.93 0.15Q276.39 0.2 275.64 0.22 274.88 0.24 274.15 0.24L274.15 0.24Q273.42 0.24 272.66 0.2 271.9 0.15 271.36 0.05L271.36 0.05Q269.7-0.24 268.78-1.39 267.85-2.54 267.38-3.93 266.92-5.32 266.8-6.64 266.68-7.96 266.68-8.69L266.68-8.69 266.68-23.54 263.06-23.54 263.06-27.54 266.68-27.54 266.68-35.35 272.58-35.35 272.58-27.54 276.98-27.54 276.98-23.54 272.58-23.54ZM297.92-23.19L297.92-27.78Q300.56-27.54 302.68-26.37 304.81-25.2 306.32-23.34 307.84-21.48 308.64-19.09 309.45-16.7 309.45-14.11L309.45-14.11Q309.45-12.94 309.3-11.77L309.3-11.77 292.55-11.77 292.55-16.06 303.83-16.06Q303.83-17.33 303.42-18.51 303-19.68 302.2-20.68 301.39-21.68 300.32-22.36 299.24-23.05 297.92-23.19L297.92-23.19ZM297.73-4.59L297.73-4.59Q298.27-4.59 299.07-4.71 299.88-4.83 300.78-5.15 301.68-5.47 302.59-5.96 303.49-6.45 304.17-7.13L304.17-7.13 306.32-3.86Q304.71-1.86 302.56-0.83 300.41 0.2 297.09 0.2L297.09 0.2Q294.41 0.2 292.06-0.9 289.72-2 288.06-3.91 286.4-5.81 285.42-8.35 284.45-10.89 284.45-13.82L284.45-13.82Q284.45-16.6 285.35-19.09 286.25-21.58 287.82-23.46 289.38-25.34 291.45-26.51 293.53-27.69 295.92-27.83L295.92-27.83 295.92-23.14Q294.12-22.8 292.94-21.68 291.77-20.56 291.11-19.12 290.45-17.68 290.18-16.16 289.92-14.65 289.92-13.57L289.92-13.57Q289.92-11.67 290.38-10.03 290.84-8.4 291.82-7.2 292.8-6.01 294.24-5.3 295.68-4.59 297.73-4.59ZM317.55-27.54L322.82-27.54 323.46-24.71 323.46-9.77 323.46-9.67 323.46 0 317.55 0 317.55-27.54ZM325.46-21.34L325.46-26.32Q326.68-27 328.39-27.37 330.1-27.73 333.03-27.73L333.03-27.73 333.03-21.58Q331.66-21.97 329.71-22.02L329.71-22.02Q328.63-22.02 327.54-21.85 326.44-21.68 325.46-21.34L325.46-21.34ZM347.68 0.2L338.01-27.54 344.7-27.54 350.51-7.96 350.51 0.2 347.68 0.2ZM352.51-7.96L358.37-27.54 365.01-27.54 355.34 0.2 352.51 0.2 352.51-7.96ZM377.99-27.54L377.99 0 372.04 0 372.04-27.54 377.99-27.54ZM378.53-36.33L378.53-36.33Q378.53-34.86 377.51-33.86 376.48-32.86 375.02-32.86L375.02-32.86Q373.55-32.86 372.55-33.89 371.55-34.91 371.55-36.33L371.55-36.33Q371.55-37.79 372.57-38.82 373.6-39.84 375.02-39.84L375.02-39.84Q376.48-39.84 377.51-38.82 378.53-37.79 378.53-36.33ZM399.09-23.19L399.09-27.78Q401.72-27.54 403.85-26.37 405.97-25.2 407.48-23.34 409-21.48 409.8-19.09 410.61-16.7 410.61-14.11L410.61-14.11Q410.61-12.94 410.46-11.77L410.46-11.77 393.72-11.77 393.72-16.06 404.99-16.06Q404.99-17.33 404.58-18.51 404.16-19.68 403.36-20.68 402.55-21.68 401.48-22.36 400.4-23.05 399.09-23.19L399.09-23.19ZM398.89-4.59L398.89-4.59Q399.43-4.59 400.23-4.71 401.04-4.83 401.94-5.15 402.85-5.47 403.75-5.96 404.65-6.45 405.34-7.13L405.34-7.13 407.48-3.86Q405.87-1.86 403.72-0.83 401.58 0.2 398.26 0.2L398.26 0.2Q395.57 0.2 393.23-0.9 390.88-2 389.22-3.91 387.56-5.81 386.59-8.35 385.61-10.89 385.61-13.82L385.61-13.82Q385.61-16.6 386.51-19.09 387.42-21.58 388.98-23.46 390.54-25.34 392.62-26.51 394.69-27.69 397.08-27.83L397.08-27.83 397.08-23.14Q395.28-22.8 394.11-21.68 392.93-20.56 392.27-19.12 391.62-17.68 391.35-16.16 391.08-14.65 391.08-13.57L391.08-13.57Q391.08-11.67 391.54-10.03 392.01-8.4 392.98-7.2 393.96-6.01 395.4-5.3 396.84-4.59 398.89-4.59ZM445.08-4.59L450.21-27.54 456.6-27.54 448.84 0.2 441.22 0.2 438.29-11.18 438.29-27.54 440.44-27.54 445.08-4.59ZM424.38-27.54L428.92-4.59 434.04-27.54 436.29-27.54 436.29-12.65 432.78 0.2 425.11 0.2 418.03-27.54 424.38-27.54Z" opacity="1" transform="matrix(1,0,0,1,0,0)" fill="#4845d2" class="wordmark-text-0" data-fill-palette-color="primary" id="text-0"></path></svg></g></svg></g></svg></g></svg></g></svg></g></svg></g></svg></g></svg></g><defs></defs></svg><rect width="395.52" height="247.2" fill="none" stroke="none" visibility="hidden"></rect></g></svg></g></svg>